<svg xmlns="http://www.w3.org/2000/svg" width="196" height="125"><g fill="none" fill-rule="evenodd"><path fill="#000" fill-rule="nonzero" d="M96.563 5.49c-6.477-2.356-17.781 7.804-16.966 13.938 1.199.868 7.61 6.477 10.467 11.403 2.856 4.926 8.472 5.719 10.556-.003 4.237-11.638 2.42-22.982-4.057-25.338Zm-1.844 5.07c1.045.38 2.091 2.007 2.566 4.975.604 3.768.03 8.612-1.731 13.448l-.033.087-.017.046-.022-.019a4.077 4.077 0 0 1-.674-.842l-.08-.134c-2.018-3.48-5.907-7.761-9.101-10.68l-.131-.12.053-.098.09-.156c.717-1.219 1.855-2.538 3.202-3.686 2.544-2.169 5.098-3.104 5.878-2.82ZM15.521 4.452c6.866-2.498 15.525 4.277 19.25 14.866 0 0-12.88 7.913-15.447 16.85-4.944 1.798-5.01 3.866-6.242.54l-.105-.29c-.47-1.311-1.113-3.346-2.215-6.372C6.525 18.41 8.656 6.95 15.522 4.452Zm1.845 5.071c-3.354 1.22-4.89 9.475-1.538 18.679.143.393.315.877.5 1.4l.019.055.043-.073c1.32-2.212 3.05-4.363 5.116-6.472l.26-.263c1.831-1.841 3.829-3.557 5.89-5.13l.402-.304-.081-.151c-3.096-5.657-7.661-8.7-10.507-7.777l-.104.036Z"/><path fill="#000" fill-rule="nonzero" d="m57.295 6.721.385.001a43.325 43.325 0 0 1 16.918 3.54c7.7 3.325 14.392 8.917 19.58 17.135 7.626 12.077 13.411 37.678 17.586 77.131a2.996 2.996 0 1 1-5.957.631c-4.08-38.555-9.72-63.518-16.692-74.56-4.53-7.174-10.278-11.977-16.89-14.833a37.412 37.412 0 0 0-14.586-3.048c-5.453-.037-11.532 1.075-17.498 3.784-8.13 3.69-15.179 9.965-20.65 19.373-6.253 10.752-10.824 33.917-13.51 69.197a2.996 2.996 0 1 1-5.972-.456C2.76 68.462 7.46 44.643 14.313 32.86 20.42 22.36 28.418 15.239 37.667 11.04 44.482 7.948 51.41 6.68 57.68 6.722h-.385Z"/><path fill="#000" fill-rule="nonzero" d="M60.403 75.108c.49 0 .978.08 1.442.239l1.997.677a4.496 4.496 0 0 1 3.05 4.259V85.3a4.495 4.495 0 0 1-4.01 4.47l-1.997.217a4.494 4.494 0 0 1-4.975-4.471v-5.912a4.495 4.495 0 0 1 4.493-4.497Zm0 2.998c-.828 0-1.498.671-1.498 1.499v5.912a1.5 1.5 0 0 0 1.658 1.49l1.997-.216a1.498 1.498 0 0 0 1.337-1.49v-5.018c0-.643-.409-1.214-1.017-1.42l-1.996-.677a1.496 1.496 0 0 0-.481-.08Z"/><path fill="#000" fill-rule="nonzero" d="M53.13 75.25a4.257 4.257 0 0 1 5.775 3.982v7.626a4.495 4.495 0 0 1-4.493 4.496h-1.497a4.495 4.495 0 0 1-4.493-4.496v-6.714a4.496 4.496 0 0 1 2.893-4.202l1.815-.692Zm2.697 3.532a1.263 1.263 0 0 0-1.63-.731l-1.816.693c-.58.221-.964.778-.964 1.4v6.714c0 .827.67 1.498 1.498 1.498h1.497c.827 0 1.498-.67 1.498-1.498v-7.626c0-.154-.028-.306-.083-.45Z"/><path fill="#000" fill-rule="nonzero" d="M66.154 46.784a7.191 7.191 0 0 1 7.15 7.933l-1.917 18.615a7.19 7.19 0 0 1-8.863 6.251c-2.642-.649-4.413-.973-5.314-.973-1 0-3.15.4-6.45 1.2a7.187 7.187 0 0 1-8.777-5.79L38.79 55.183a7.194 7.194 0 0 1 7.087-8.399h20.278Zm0 3.997H45.876a3.197 3.197 0 0 0-3.15 3.733l3.195 18.837a3.195 3.195 0 0 0 3.894 2.575l.006-.001c3.533-.857 5.838-1.29 7.28-1.311l.11-.001c1.33 0 3.311.363 6.265 1.088a3.192 3.192 0 0 0 3.939-2.779l1.917-18.615a3.196 3.196 0 0 0-3.178-3.525Z"/><path stroke="#000" stroke-width="3" d="m56.639 52.614-.48 23.002"/><path fill="#000" d="M58.232 63.727c3.816-2.913 6.249-4.961 7.3-6.144.78-.88 1.895-2.517 3.343-4.91h.001a2.7 2.7 0 0 0-2.308-4.095H43.843a2.7 2.7 0 0 0-2.266 4.166c1.972 3.043 3.47 5.027 4.497 5.951 1.311 1.18 4.43 2.954 9.357 5.32l-.001.002a2.7 2.7 0 0 0 2.804-.288Z"/><ellipse cx="83.925" cy="48.613" fill="#000" rx="4.493" ry="5.618" transform="scale(1 -1) rotate(20 359.62 0)"/><ellipse cx="27.801" cy="49.612" fill="#000" rx="4.493" ry="5.618" transform="rotate(20 27.8 49.612)"/><path fill="#000" fill-rule="nonzero" d="M131.32 96.013c5.526-4.111 10.475-4.305 13.996-.005 2.69 3.284 3.165 6.244 2.92 13.75-.15 4.574-1.785 8.885-4.843 12.867a2.995 2.995 0 1 1-4.75-3.652c2.317-3.015 3.498-6.129 3.605-9.408.2-6.122-.095-7.96-1.567-9.756-1.18-1.44-2.562-1.386-5.788 1.014-2.55 1.898-4.255 3.993-5.176 6.293a2.996 2.996 0 1 1-5.561-2.228c1.356-3.385 3.765-6.346 7.164-8.875Z"/><g fill="#000" fill-rule="nonzero"><path d="M145.37 63.037a3.496 3.496 0 0 1 2.861 4.032l-6.304 37.191a3.496 3.496 0 0 1-4.03 2.865 3.496 3.496 0 0 1-2.86-4.033l6.304-37.191a3.496 3.496 0 0 1 4.03-2.864Z"/><path d="M185.684 15.199c5.701 1.005 9.508 6.446 8.501 12.153l-6.593 37.394c-1.006 5.707-6.444 9.518-12.146 8.512l-61.943-10.922c-5.701-1.005-9.508-6.446-8.502-12.153l6.594-37.394c1.006-5.707 6.444-9.518 12.146-8.512l61.943 10.922Zm-1.042 5.904L122.7 10.181a4.495 4.495 0 0 0-5.206 3.648l-6.593 37.394a4.495 4.495 0 0 0 3.643 5.209l61.943 10.922a4.495 4.495 0 0 0 5.205-3.648l6.594-37.394a4.495 4.495 0 0 0-3.644-5.209Z"/></g></g></svg>