<svg xmlns="http://www.w3.org/2000/svg" width="112" height="104"><g fill="none" fill-rule="evenodd"><path fill="#000" fill-rule="nonzero" d="M96.747 1.559c-6.49-2.36-17.812 7.804-16.993 13.944 1.2.868 7.626 6.484 10.489 11.414 2.862 4.93 8.489 5.726 10.575 0 4.241-11.645 2.419-22.998-4.071-25.358ZM94.9 6.633c1.048.38 2.096 2.007 2.573 4.978.605 3.772.032 8.619-1.73 13.459l-.033.086-.018.047-.022-.02a4.088 4.088 0 0 1-.675-.842l-.08-.134c-2.023-3.484-5.92-7.77-9.122-10.692l-.13-.12.053-.098.09-.156c.718-1.22 1.858-2.539 3.206-3.687 2.55-2.17 5.107-3.105 5.888-2.821ZM15.557.52c6.88-2.502 15.553 4.276 19.281 14.872 0 0-12.906 7.923-15.48 16.866-4.953 1.802-5.02 3.871-6.253.543l-.106-.29c-.47-1.312-1.114-3.348-2.217-6.376C6.54 14.49 8.678 3.022 15.557.52Zm1.847 5.075c-3.36 1.222-4.901 9.483-1.546 18.693.143.393.315.877.5 1.401l.02.055.043-.073c1.323-2.214 3.057-4.367 5.127-6.478l.26-.264c1.835-1.843 3.837-3.56 5.904-5.136l.402-.304-.082-.151c-3.1-5.66-7.672-8.704-10.524-7.78l-.104.036Z"/><path fill="#000" fill-rule="nonzero" d="m57.407 2.79.386.002a43.454 43.454 0 0 1 16.95 3.541c7.715 3.328 14.42 8.924 19.62 17.147 7.64 12.086 13.435 37.704 17.618 77.183a3 3 0 0 1-4.206 3.074 3 3 0 0 1-1.762-2.442c-4.088-38.581-9.74-63.56-16.725-74.61-4.539-7.18-10.297-11.985-16.923-14.843A37.53 37.53 0 0 0 57.752 8.79c-5.464-.037-11.555 1.077-17.532 3.787-8.146 3.693-15.208 9.971-20.69 19.386-6.265 10.759-10.845 33.94-13.535 69.243a3 3 0 0 1-4.693 2.266A3 3 0 0 1 .01 100.75c2.757-36.178 7.466-60.013 14.332-71.805C20.46 18.44 28.474 11.315 37.741 7.114c6.828-3.096 13.77-4.365 20.052-4.322l-.386-.001Z"/><path fill="#000" fill-rule="nonzero" d="M60.52 71.224c.492 0 .98.08 1.446.238l2 .678a4.5 4.5 0 0 1 3.057 4.261v5.023a4.5 4.5 0 0 1-4.018 4.473l-2 .216a4.503 4.503 0 0 1-4.986-4.473v-5.917a4.5 4.5 0 0 1 4.501-4.5Zm0 3a1.5 1.5 0 0 0-1.5 1.5v5.916a1.5 1.5 0 0 0 1.662 1.49l2-.216a1.5 1.5 0 0 0 1.34-1.49V76.4a1.5 1.5 0 0 0-1.019-1.42l-2-.678a1.501 1.501 0 0 0-.483-.08Z"/><path fill="#000" fill-rule="nonzero" d="M53.234 71.365a4.268 4.268 0 0 1 5.786 3.986v7.63a4.5 4.5 0 0 1-4.501 4.5h-1.5a4.5 4.5 0 0 1-4.502-4.5v-6.718a4.5 4.5 0 0 1 2.898-4.205l1.82-.693Zm2.702 3.535a1.266 1.266 0 0 0-1.633-.731l-1.82.693a1.5 1.5 0 0 0-.965 1.401v6.718a1.5 1.5 0 0 0 1.5 1.5h1.5a1.5 1.5 0 0 0 1.501-1.5v-7.63c0-.154-.028-.307-.083-.45Z"/><path fill="#000" fill-rule="nonzero" d="M66.283 42.88a7.2 7.2 0 0 1 7.165 7.938l-1.922 18.629a7.201 7.201 0 0 1-8.88 6.255c-2.647-.65-4.422-.974-5.324-.974-1.001 0-3.156.4-6.462 1.2a7.202 7.202 0 0 1-8.794-5.793l-3.2-18.85a7.199 7.199 0 0 1 7.1-8.404h20.317Zm0 4H45.965a3.202 3.202 0 0 0-3.156 3.735l3.201 18.85a3.2 3.2 0 0 0 3.902 2.578l.006-.002c3.541-.857 5.85-1.291 7.294-1.312l.11-.001c1.333 0 3.318.363 6.277 1.09a3.202 3.202 0 0 0 3.947-2.781l1.921-18.629a3.199 3.199 0 0 0-3.184-3.527Z"/><path stroke="#000" stroke-width="3" d="m56.75 48.714-.48 23.018"/><path fill="#000" fill-rule="nonzero" d="M58.345 59.836c3.823-2.916 6.262-4.966 7.315-6.15.782-.88 1.899-2.517 3.349-4.912a2.699 2.699 0 0 0-2.31-4.098H43.924a2.701 2.701 0 0 0-2.265 4.167c1.976 3.046 3.478 5.031 4.506 5.957 1.314 1.18 4.44 2.956 9.377 5.324a2.702 2.702 0 0 0 2.804-.287v-.001Z"/><ellipse cx="84.089" cy="44.71" fill="#000" fill-rule="nonzero" rx="4.501" ry="5.623" transform="scale(1 -1) rotate(20 337.652 0)"/><ellipse cx="27.856" cy="45.71" fill="#000" fill-rule="nonzero" rx="4.501" ry="5.623" transform="rotate(20 27.856 45.71)"/></g></svg>