<svg xmlns="http://www.w3.org/2000/svg" width="196" height="135"><g fill="none" fill-rule="evenodd"><g transform="translate(0 .004)"><path fill="#000" fill-rule="nonzero" d="M96.563 5.486C90.086 3.13 78.782 13.29 79.597 19.424c1.199.868 7.61 6.477 10.467 11.403 2.856 4.926 8.472 5.719 10.556-.003 4.237-11.637 2.42-22.982-4.057-25.338Zm-1.844 5.07c1.045.381 2.091 2.007 2.566 4.975.604 3.769.03 8.612-1.731 13.448l-.033.087-.017.046-.022-.019a4.077 4.077 0 0 1-.674-.841l-.08-.135c-2.018-3.48-5.907-7.761-9.102-10.68l-.13-.12.053-.098.09-.156c.717-1.219 1.855-2.537 3.202-3.685 2.544-2.17 5.098-3.105 5.878-2.821ZM15.521 4.448c6.866-2.497 15.525 4.277 19.25 14.866 0 0-12.88 7.913-15.448 16.85-4.943 1.798-5.01 3.866-6.24.54l-.106-.29c-.47-1.311-1.113-3.346-2.215-6.372-4.237-11.637-2.106-23.096 4.76-25.594Zm1.845 5.071c-3.354 1.22-4.89 9.475-1.538 18.679.143.393.315.877.5 1.4l.019.055.043-.073c1.32-2.212 3.05-4.363 5.116-6.472l.26-.263c1.831-1.841 3.829-3.557 5.89-5.13l.402-.304-.081-.151c-3.096-5.657-7.661-8.7-10.507-7.776l-.104.035Z"/><path fill="#000" fill-rule="nonzero" d="m57.295 6.717.385.001a43.325 43.325 0 0 1 16.918 3.54c7.7 3.325 14.392 8.918 19.58 17.135 7.626 12.077 13.411 37.678 17.586 77.131a2.996 2.996 0 1 1-5.957.631c-4.08-38.555-9.72-63.518-16.692-74.56-4.53-7.174-10.278-11.976-16.89-14.833a37.412 37.412 0 0 0-14.586-3.048c-5.453-.037-11.532 1.076-17.498 3.784-8.13 3.69-15.179 9.965-20.65 19.373-6.253 10.752-10.824 33.917-13.51 69.197a2.996 2.996 0 1 1-5.972-.456C2.76 68.458 7.46 44.64 14.313 32.855c6.106-10.499 14.105-17.62 23.354-21.817 6.815-3.094 13.743-4.362 20.013-4.32h-.385Z"/><path fill="#000" fill-rule="nonzero" d="M60.403 75.105c.49 0 .978.08 1.442.238l1.997.677a4.496 4.496 0 0 1 3.05 4.259v5.018a4.495 4.495 0 0 1-4.01 4.47l-1.997.217a4.494 4.494 0 0 1-4.975-4.47V79.6a4.495 4.495 0 0 1 4.493-4.496Zm0 2.997c-.828 0-1.498.671-1.498 1.5v5.911a1.5 1.5 0 0 0 1.658 1.49l1.997-.216a1.498 1.498 0 0 0 1.337-1.49V80.28c0-.643-.409-1.213-1.017-1.42l-1.996-.677a1.496 1.496 0 0 0-.481-.08Z"/><path fill="#000" fill-rule="nonzero" d="M53.13 75.246a4.257 4.257 0 0 1 5.775 3.982v7.626a4.495 4.495 0 0 1-4.493 4.496h-1.497a4.495 4.495 0 0 1-4.493-4.496V80.14a4.496 4.496 0 0 1 2.893-4.201l1.815-.693Zm2.697 3.532a1.263 1.263 0 0 0-1.63-.73l-1.816.692c-.58.221-.964.778-.964 1.4v6.714c0 .827.67 1.499 1.498 1.499h1.497c.827 0 1.498-.672 1.498-1.5v-7.625c0-.153-.028-.306-.083-.45Z"/><path fill="#000" fill-rule="nonzero" d="M66.154 46.78a7.191 7.191 0 0 1 7.15 7.933l-1.917 18.615a7.19 7.19 0 0 1-8.863 6.251c-2.642-.649-4.413-.973-5.314-.973-1 0-3.15.4-6.45 1.2a7.187 7.187 0 0 1-8.777-5.79L38.79 55.179a7.194 7.194 0 0 1 7.087-8.399h20.278Zm0 3.997H45.876a3.197 3.197 0 0 0-3.15 3.733l3.195 18.838a3.195 3.195 0 0 0 3.894 2.575l.006-.002c3.533-.856 5.838-1.29 7.28-1.311h.11c1.33 0 3.311.362 6.265 1.087a3.192 3.192 0 0 0 3.939-2.778l1.917-18.616a3.196 3.196 0 0 0-3.178-3.525Z"/><path stroke="#000" stroke-width="3" d="m56.639 52.61-.48 23.002"/><path fill="#000" d="M58.232 63.723c3.816-2.913 6.249-4.961 7.3-6.144.78-.88 1.895-2.517 3.343-4.91h.001a2.7 2.7 0 0 0-2.308-4.095H43.843a2.7 2.7 0 0 0-2.266 4.166c1.972 3.043 3.47 5.027 4.497 5.952 1.311 1.18 4.43 2.953 9.357 5.32h-.001a2.7 2.7 0 0 0 2.804-.287Z"/><ellipse cx="83.925" cy="48.609" fill="#000" rx="4.493" ry="5.618" transform="scale(1 -1) rotate(20 359.599 0)"/><ellipse cx="27.801" cy="49.608" fill="#000" rx="4.493" ry="5.618" transform="rotate(20 27.8 49.608)"/></g><g fill="#000"><path fill-rule="nonzero" d="M145.37 63.037a3.496 3.496 0 0 1 2.861 4.032l-6.304 37.191a3.496 3.496 0 0 1-4.03 2.865 3.496 3.496 0 0 1-2.86-4.033l6.304-37.191a3.496 3.496 0 0 1 4.03-2.864Z"/><path fill-rule="nonzero" d="M185.684 15.199c5.701 1.005 9.508 6.446 8.501 12.153l-6.593 37.394c-1.006 5.707-6.444 9.518-12.146 8.512l-61.943-10.922c-5.701-1.005-9.508-6.446-8.502-12.153l6.594-37.394c1.006-5.707 6.444-9.518 12.146-8.512l61.943 10.922Zm-1.042 5.904L122.7 10.181a4.495 4.495 0 0 0-5.206 3.648l-6.593 37.394a4.495 4.495 0 0 0 3.643 5.209l61.943 10.922a4.495 4.495 0 0 0 5.205-3.648l6.594-37.394a4.495 4.495 0 0 0-3.644-5.209ZM130.597 97.197c6.156-3.09 11.063-2.421 13.785 2.425 2.078 3.701 2.032 6.699.487 14.048-.941 4.479-3.3 8.44-7.004 11.83a2.995 2.995 0 1 1-4.042-4.42c2.805-2.568 4.508-5.43 5.183-8.64 1.26-5.994 1.288-7.855.151-9.88-.911-1.623-2.282-1.81-5.876-.006-2.842 1.426-4.884 3.193-6.19 5.298a2.996 2.996 0 1 1-5.09-3.16c1.923-3.097 4.81-5.595 8.596-7.495Z"/><g transform="rotate(10 -82.297 808.095)"><path fill-rule="nonzero" d="m.548 17.203.116.012 24 4a1 1 0 1 1-.328 1.973l-24-4a1 1 0 1 1 .328-1.973l-.116-.012Z"/><ellipse cx="21.174" cy="4.785" rx="3" ry="4" transform="scale(1 -1) rotate(20 48.31 0)"/><ellipse cx="6.174" cy="5.785" rx="3" ry="4" transform="rotate(20 6.174 5.785)"/></g></g></g></svg>